<svg xmlns="http://www.w3.org/2000/svg" xmlns:xlink="http://www.w3.org/1999/xlink" width="524.637" height="352.132" viewBox="0 0 524.637 352.132"><defs><style>.a{fill:url(#a);}.b{fill:#9b87ff;}.c{fill:#0b2d4e;}.d{fill:#1a0f91;}.e{fill:#061f33;}.f{fill:#4042e2;}.g{clip-path:url(#b);}.h{fill:#fff;}.i{fill:#6d58b1;}.j{fill:#f8a17a;}.k{fill:#e5785c;}.l{fill:#8070f2;}.m{fill:#73b8d4;}.n{fill:#3dc8e8;}.o{clip-path:url(#c);}.p{fill:#26a8d1;}.q{clip-path:url(#d);}.r{fill:#e9e8e8;}.s{fill:#dbcdfe;}.t{fill:#6a50ef;}</style><linearGradient id="a" x1="0.84" y1="0.905" x2="0.21" y2="0.201" gradientUnits="objectBoundingBox"><stop offset="0" stop-color="#6d59d7" stop-opacity="0.69"/><stop offset="1" stop-color="#27a4f7" stop-opacity="0.839"/></linearGradient><clipPath id="b"><path d="M1160.218-1056.778c3.388-12.365,5.143-25.017-2.533-33.44-3.465-3.8-9.639-6.453-14.693-8.336-9.855-3.674-19.933-8.611-30.482-10.214-11.124-1.688-23.495-2.727-34.581-.314a89.318,89.318,0,0,0-19.926,7.434c-8.452,4.11-14.472,6.873-17.184,15.323a142.552,142.552,0,0,0-5.852,28.694c-2.982,28.344.963,56.758.868,85.116-.009,2.788.033,5.687,1.449,8.192,2.791,4.943,10.374,5.012,15.837,5q27.008-.042,54.015-.081a106.868,106.868,0,0,1,20.249,2.024,12.964,12.964,0,0,0,13.837-6.276c2.688-4.5,2.894-9.744,3.182-14.8a278.447,278.447,0,0,1,9.647-58.365c1.5-5.421,4.124-12.51,6.165-19.964" transform="translate(-1033.851 1110.503)"/></clipPath><clipPath id="c"><path d="M2114.184-1407.572c-3.054-.017-6.021-.408-8.114-3.407-4.11-5.884-10.38-11.166-17.411-5.182-4.057,3.449-1.008,10.549-4.5,13.962-3.085,3.021-7.012,2.521-8.592,7.534-2.322,7.373,5,13.832,7.348,20.208,1.971,5.351-2.463,7.389-4.454,11.557-1.539,3.216-.747,6.659.927,9.73,2.952,5.418,9.494,9.78,7.978,16.8-1.264,5.854-2.441,11.074,2.727,15.512,3.541,3.041,10.111,5.815,9.611,11.444-.178,1.994-1.555,3.69-1.933,5.656-.6,3.107,1.413,6.134,3.751,8.267,5.323,4.857,10,9.433,13.982,15.542,1.7,2.61,8.523,8.5,5.8,12.071,4.954-6.484,10.189-12.777,14.69-19.594,3.7-5.609,9.283-13.812,5.484-20.719-1.183-2.149-3.379-3.749-3.982-6.126-1.086-4.293,3.133-8.272,4.7-11.924,2.46-5.734.655-12.393-3.682-16.7-2.049-2.035-4.276-4.273-4.576-7.151-.331-3.138,1.638-6.065,2.53-8.961a44.7,44.7,0,0,0,1.639-8.278,17.243,17.243,0,0,0-.167-5.876c-.877-3.643-4.157-5.668-6.584-8.25-5.779-6.154-2.74-13.385-5.265-20.535-2.019-5.718-6.148-5.654-10.355-5.593-.516.008-1.033.017-1.547.011" transform="translate(-2075.119 1418.796)"/></clipPath><clipPath id="d"><path d="M2308.517-1170.9c2.222.408,4.427.536,6.359-1.35,3.793-3.7,9.075-6.662,13.349-1.349,2.463,3.066-.73,7.792,1.327,10.752,1.822,2.616,4.738,2.8,5.19,6.654.664,5.668-5.54,9.342-8.128,13.64-2.169,3.607.767,5.7,1.633,9,.669,2.546-.38,4.935-2.019,6.931-2.891,3.521-8.242,5.779-8.114,11.077.109,4.424.239,8.372-4.124,10.877-2.988,1.716-8.139,2.816-8.556,6.97-.147,1.469.619,2.893.619,4.371.005,2.338-1.874,4.254-3.865,5.476a59.021,59.021,0,0,0-12.293,9.339c-1.6,1.658-7.359,4.99-5.876,7.956-2.694-5.39-5.621-10.677-7.942-16.248-1.911-4.579-4.821-11.3-1.111-15.787,1.155-1.4,2.971-2.252,3.735-3.893,1.383-2.963-1.125-6.434-1.758-9.3a11.324,11.324,0,0,1,4.982-11.6c1.772-1.191,3.7-2.507,4.312-4.551.672-2.233-.35-4.629-.6-6.851a33.156,33.156,0,0,1-.042-6.234,12.716,12.716,0,0,1,.936-4.24c1.139-2.519,3.8-3.532,5.915-5.071,5.043-3.663,3.841-9.33,6.662-14.168,2.533-4.34,5.984-3.032,9.406-2.4" transform="translate(-2273.177 1176.484)"/></clipPath></defs><g transform="translate(-98.097 -795.268)"><path class="a" d="M308.208,288.89c46.973-17.339,87.955-64.627,97.1-117.274,8.827-52.647-13.871-110.653-48.549-152.9-34.678-42.559-81.65-69.355-126.1-72.508-44.766-3.468-87.01,17.024-127.677,34.678C62.311-1.141,23.22,13.991-11.143,45.516s-64,79.443-59.9,124.524c3.783,45.4,41.613,87.955,84.8,105.925s91.423,11.664,142.494,14.817S260.92,306.229,308.208,288.89Z" transform="translate(169.518 849.444)"/><g transform="translate(-33.844 2736.917)"><g transform="translate(153.497 -1941.649)"><path class="b" d="M1090.286-1384.967c-8.92,9.178-.829,31.6,13.4,28.358,15.285-3.488,12.986-27.308-.836-31.218-5.39-1.527-9.689-.094-12.56,2.86" transform="translate(-892.224 1503.661)"/><path class="c" d="M1136.023-1590.145a25.456,25.456,0,0,1-12.013,6.9c-8.906,2.035-17.272-1.886-24.7-6.4-7.939-4.826-15.856-9.717-23.346-15.226-5.354-3.938-10.836-8.123-14.172-14.01-3.868-6.826-4.094-15.029-3.3-22.646.539-5.2-1.888-9.872-2.957-14.832-2.081-9.655.05-21.057,9.056-26.595,4.6-2.827,9.406-2.41,14.244-.33,3.707,1.594,7.164,3.81,11.045,4.912,8.263,2.347,17.225-.886,25.317-2.552,5.862-1.205,12.271-1.836,18.05.1,6.434,2.155,9.494,6.862,13.007,12.307,3,4.657,7.556,8.17,11.185,12.313a21.738,21.738,0,0,1,4.7,19.722c-2.4,10.494-8.439,19.516-13.682,28.725-3.352,5.887-7.267,12.613-12.432,17.614" transform="translate(-867.081 1738.419)"/><path class="d" d="M864.884-981.161c10.7-16.481,17.352-36.711,8.058-55.322-.942-1.886-2.075-3.943-4.076-4.61-4.3-1.43-10.139.108-13.88,2.3-12.978,7.615-20.92,21.943-28.211,34.692-7.575,13.243-14.153,27.031-21.765,40.254-3.083,5.357-6.2,10.786-7.85,16.739-1.448,5.218-1.607,11.188.369,16.292,8.545,22.065,32.041-4.962,39.193-13.129a326.258,326.258,0,0,0,28.163-37.222" transform="translate(-662.232 1229.09)"/><path class="e" d="M1155.458-1463a13.932,13.932,0,0,1-3.993,3c-3.9,1.933-8.567,1.838-12.726.561a41.259,41.259,0,0,1-11.446-6.153c-9.61-6.79-21.5-15.773-27.216-26.212-3.526-6.434-6.141-14.032-2.768-21.052a19.6,19.6,0,0,1,15.529-11.127,3.089,3.089,0,0,1,1.631.164,3.272,3.272,0,0,1,1.255,1.364c2.431,3.99,4.37,8.336,7.342,11.977a43.846,43.846,0,0,0,11.588,9.566c7.045,4.274,14.781,7.428,21.407,12.327,4.788,3.538,4.912,11.5,3.746,17.022a18.071,18.071,0,0,1-4.349,8.564" transform="translate(-899.501 1610.995)"/><path class="f" d="M1160.218-1056.778c3.388-12.365,5.143-25.017-2.533-33.44-3.465-3.8-9.639-6.453-14.693-8.336-9.855-3.674-19.933-8.611-30.482-10.214-11.124-1.688-23.495-2.727-34.581-.314a89.318,89.318,0,0,0-19.926,7.434c-8.452,4.11-14.472,6.873-17.184,15.323a142.552,142.552,0,0,0-5.852,28.694c-2.982,28.344.963,56.76.868,85.116-.009,2.788.033,5.687,1.449,8.192,2.791,4.943,10.374,5.012,15.837,5q27.008-.042,54.015-.081a106.868,106.868,0,0,1,20.249,2.024,12.964,12.964,0,0,0,13.837-6.276c2.688-4.5,2.894-9.744,3.182-14.8a278.447,278.447,0,0,1,9.647-58.365c1.5-5.421,4.124-12.51,6.165-19.964" transform="translate(-850.5 1283.605)"/><g transform="translate(183.351 173.103)"><g class="g" transform="translate(0)"><path class="d" d="M1252.935-1112.087c3.813-6.148,4.679-13.832-.314-19.755-2.283-2.708-6.32-3.013-9.775-3.074a85.618,85.618,0,0,0-20.224,2.055c-6.308,1.416-12.74,3.813-15.472,9.919A14.738,14.738,0,0,0,1208.5-1109a17.888,17.888,0,0,0,10.955,7.589c7.26,1.655,15.758,1.433,22.683-1.355a23.387,23.387,0,0,0,10.794-9.319" transform="translate(-1170.13 1129.842)"/></g></g><path class="d" d="M1553.1-978.864q4.1,7.4,8.12,14.843c5.415,10.091,15.47,32.512-.625,38.049-8.111,2.791-12.752.061-18.114-5.845a341.649,341.649,0,0,1-51.279-74.3c-5.1-10.008-18.647-36.083-2.2-42.043a19.979,19.979,0,0,1,16.048,1.175,32.214,32.214,0,0,1,6.084,4.49c11.871,10.586,20.327,24.248,27.847,38.1,4.649,8.561,9.408,17.031,14.115,25.523" transform="translate(-1204.609 1235.157)"/><path class="d" d="M1351.888-582.3q2.124-.358,4.257-.691,10.363-1.608,20.638-3.807a355.147,355.147,0,0,1,40.987-6.7q2.191-.2,4.39-.372c6.184-.466,12.666-.628,18.32,2.255s10.147,9.714,8.753,16.312c-.98,4.632-4.607,8.125-8.636,9.891s-8.461,2.077-12.81,2.371q-21.131,1.425-42.257,2.852-10.463.7-20.921,1.436c-6.659.464-13.421,1.394-20.1,1.4-2.824,0-5.976-.511-8.347-2.349-3.293-2.555-5.27-8.006-5.582-12.266-.162-2.213.284-4.9,2.019-6.273a7.112,7.112,0,0,1,3.246-1.166c5.354-.972,10.683-1.985,16.04-2.888" transform="translate(-1085.407 874.781)"/><path class="h" d="M917.229-513.292h-66.79v13.077h66.79v-13.077" transform="translate(-705.287 810.776)"/><path class="h" d="M362.893-848.254l-16.856-85.815a4.832,4.832,0,0,0-4.743-3.9H229.238a4.794,4.794,0,0,0-3.884,1.991l-.015-.014-5.174,6.118,4.591-1.005,16.6,84.491a4.834,4.834,0,0,0,4.743,3.9H358.151a4.833,4.833,0,0,0,4.742-5.765" transform="translate(-206.28 1147.007)"/><path class="i" d="M237.605-813.476H349.662a4.834,4.834,0,0,0,4.742-5.765l-16.856-85.815a4.834,4.834,0,0,0-4.742-3.9H220.749a4.834,4.834,0,0,0-4.742,5.765l16.856,85.815a4.834,4.834,0,0,0,4.743,3.9" transform="translate(-202.914 1124.036)"/><path class="h" d="M488.655-729.785A13.084,13.084,0,0,0,501.008-719.3c5.789,0,9.577-4.693,8.46-10.483s-6.647-10.48-12.353-10.48-9.493,4.693-8.46,10.48" transform="translate(-418.717 990.477)"/><path class="j" d="M1137.176-505.564c-3.33.689-5.93,3.613-9.245,4.59a11.366,11.366,0,0,1-7.168-.525c-2.089-.786-4.214-1.205-6.359-1.891-1.672-.536-3.928-1.663-5.724-1.288-4.707.98-9.4,4.329-13.667,6.5a4.967,4.967,0,0,1-3.068.791c-1.058-.2-1.94-1.483-1.338-2.374-1.227,1.147-2.852,3.438-4.833,2.549a1.654,1.654,0,0,1-.849-2.2,6.7,6.7,0,0,1-2.335,1.888,2.294,2.294,0,0,1-2.726-.636,2.7,2.7,0,0,1-.362-1.361,10.283,10.283,0,0,1,1.093-4.735c3.36-7.334,10.959-12.774,17.424-17.142a13.87,13.87,0,0,1,3.629-1.961,12.715,12.715,0,0,1,3.67-.405,73.16,73.16,0,0,1,23.639,3.818c1.644.555,3.456.083,5.094-.225a7.957,7.957,0,0,1,3.666-.106,6.325,6.325,0,0,1,3.163,2.56,11.867,11.867,0,0,1,2.444,7.378c-.133,1.966-.283,4.088-2.6,4.5-.939.169-1.905.064-2.852.164q-.354.038-.7.108" transform="translate(-886.637 819.065)"/><path class="j" d="M1252.948-1201.863c4.9-1.572,8.933-4.618,10.444-9.458,1.372-4.393-.791-9.333-1.175-13.765a83.92,83.92,0,0,1-.139-12.777c.258-3.932.633-8.028.031-11.949-.344-2.241-1.574-1.858-3.841-2.746a19.687,19.687,0,0,0-7.273-.891c-5.042.011-18.187-.355-21.3,4.071-1.431,2.03-1.543,4.588-1.611,7-.082,2.921-.6,6.7-1.078,10.775-.213,1.816-.082,3.621-.359,5.423a34.05,34.05,0,0,1-1.748,5.881c-2.536,7.306-.161,14.254,7.74,17.6a31.214,31.214,0,0,0,20.311.833" transform="translate(-1000.987 1396.784)"/><path class="k" d="M1267.538-1249.812c-.342-2.241-1.572-1.858-3.838-2.746a19.687,19.687,0,0,0-7.273-.891c-5.043.011-18.187-.355-21.3,4.071-1.431,2.03-1.544,4.588-1.611,7-.082,2.921-.6,6.7-1.078,10.775-.213,1.816-.081,3.621-.359,5.423a25.164,25.164,0,0,1-1.259,4.5,26.741,26.741,0,0,0,15.508.964c9.186-2.26,16.142-7.978,21.1-15.412.025-.58.042-1.158.081-1.736.258-3.932.633-8.028.028-11.949" transform="translate(-1006.445 1396.784)"/><path class="j" d="M1187.328-1526.12a61.679,61.679,0,0,0-2.7-18.425c-7.475-22.885-36.022-28.538-53.212-12.11-19.17,18.317-11.834,62.117,8.358,77.5a22.66,22.66,0,0,0,19.292,3.8c19.839-5.321,28.389-29.735,28.264-50.768" transform="translate(-918.911 1644.306)"/><path class="k" d="M1206.134-1544.545c-7.475-22.885-36.022-28.538-53.212-12.11a31.08,31.08,0,0,0-5.5,7.142,23.373,23.373,0,0,0,3.014,2.166,87.8,87.8,0,0,0,23.3,9.755c3.52.905,7.224,1.649,10.108,3.86a14.886,14.886,0,0,1,3.911,4.729,43.888,43.888,0,0,1,2.891,7.006,83.211,83.211,0,0,1,3.285,16.084,2.5,2.5,0,0,0,.586,1.56,2.089,2.089,0,0,0,1.516.433c3.166-.081,4.693-3.116,7.159-4.723,1.483-.969,2.963-1.955,4.374-3.027a78.587,78.587,0,0,0,1.266-14.451,61.679,61.679,0,0,0-2.7-18.425" transform="translate(-940.419 1644.306)"/><path class="c" d="M1202.759-1558.388a44.049,44.049,0,0,1,1.958,7.32,83.107,83.107,0,0,1,1.172,16.375,2.525,2.525,0,0,0,.38,1.625,2.1,2.1,0,0,0,1.45.625c3.149.328,5.057-2.482,7.709-3.757a42.366,42.366,0,0,0,7.931-4.543c6.842-5.362,5.279-14.212,5.062-22.082-.12-4.324-.247-8.709-1.516-12.843a31.543,31.543,0,0,0-7.281-11.994c-9.258-9.991-23.23-15.184-36.757-14.332-6.7.422-14.255,3.257-19.027,8.081-4.115,4.157.9,9.808,4.289,12.5a87.733,87.733,0,0,0,21.842,12.693c3.372,1.352,6.949,2.571,9.523,5.134a14.947,14.947,0,0,1,3.266,5.2" transform="translate(-952.189 1672.805)"/><path class="j" d="M1399.637-1375.645c8.781-4.8,11.485,7.359,9.975,13.41a19.29,19.29,0,0,1-3.163,6.992c-2.088,2.771-8.067,7.365-11.508,4.335-1.563-1.374-1.724-3.71-1.772-5.79-.128-5.579.514-15.692,6.467-18.947" transform="translate(-1134.972 1494.395)"/><path class="c" d="M1053.283-1652.723c-1.5-4.213-3.587-8.067-5.276-11.893s-2.986-7.612-2.985-11.7a19.964,19.964,0,0,1,1.276-6.956,17.2,17.2,0,0,1,16-11.28c.1,0,.193,0,.288,0a19.039,19.039,0,0,1,9.431,2.48,38.681,38.681,0,0,1,4.793,3.6,15.03,15.03,0,0,0,5.506,3.043,17.333,17.333,0,0,0,4.529.58c4.361,0,8.687-1.452,12.915-3.063s8.365-3.393,12.292-4.121a26.915,26.915,0,0,1,4.887-.455,22.473,22.473,0,0,1,10.63,2.538,18.247,18.247,0,0,1,7.706,7.859,55.559,55.559,0,0,1,2.23,5.446,21.911,21.911,0,0,0,2.755,5.365,18.07,18.07,0,0,0,3.643,3.535c2.027,1.53,4.254,2.81,6.242,4.235a15.359,15.359,0,0,1,4.843,5.046,11.25,11.25,0,0,1,1.3,5.423c.006,4.177-1.885,8.82-4.346,13.141a116.793,116.793,0,0,1-7.639,11.288l.894.658a117.961,117.961,0,0,0,7.712-11.4c2.5-4.407,4.485-9.18,4.49-13.69a12.375,12.375,0,0,0-1.43-5.948,13.986,13.986,0,0,0-3.2-3.877,59.548,59.548,0,0,0-6.173-4.343,21.412,21.412,0,0,1-5.448-4.735,20.89,20.89,0,0,1-2.607-5.1,56.241,56.241,0,0,0-2.277-5.551,19.342,19.342,0,0,0-8.17-8.333,23.581,23.581,0,0,0-11.155-2.669,27.9,27.9,0,0,0-5.09.475c-4.1.764-8.285,2.574-12.485,4.174s-8.41,2.993-12.519,2.991a16.111,16.111,0,0,1-4.24-.544,13.931,13.931,0,0,1-5.1-2.838,39.446,39.446,0,0,0-4.933-3.691,20.143,20.143,0,0,0-9.983-2.627c-.1,0-.2,0-.305,0a18.31,18.31,0,0,0-17.03,12.01,21.046,21.046,0,0,0-1.344,7.337c0,4.326,1.367,8.267,3.08,12.146s3.78,7.709,5.246,11.816l1.046-.372" transform="translate(-858.464 1746.894)"/><path class="l" d="M1262.243-1240.5a44.2,44.2,0,0,1-6.491-.48l.388-2.632a40.021,40.021,0,0,0,22.734-3.177,29.227,29.227,0,0,0,4.918-2.824,23.215,23.215,0,0,0,6.37-7.026l2.3,1.347a25.9,25.9,0,0,1-7.106,7.834,31.9,31.9,0,0,1-5.362,3.085,42.108,42.108,0,0,1-17.75,3.874" transform="translate(-1026.185 1399.304)"/><path class="l" d="M1213.06-1211.55c3.211-2.755,10.353-2.521,12.708.342,1.745,2.119,1.213,4.813-.709,6.6-2.273,2.122-5.084,2-7.92,1.361-3.55-.8-7.949-4.984-4.079-8.306" transform="translate(-991.192 1365.145)"/><path class="m" d="M1205.426-1613c.774.025,1.544.083,2.317.061.771.014,1.542-.022,2.311-.056q2.307-.142,4.6-.475c3.053-.419,6.088-1,9.17-1.411a46.066,46.066,0,0,1,9.345-.411c.783.047,1.563.128,2.344.247a23.149,23.149,0,0,1,2.327.461,17.658,17.658,0,0,1,4.44,1.747,13.978,13.978,0,0,1,1.972,1.394,14.406,14.406,0,0,1,1.688,1.73,12.959,12.959,0,0,1,1.328,2.03,10.407,10.407,0,0,1,.855,2.28,8.787,8.787,0,0,1,.253,2.438,11.5,11.5,0,0,1-.347,2.383c-.175.764-.366,1.5-.483,2.236a8.266,8.266,0,0,0-.064,2.191,13.423,13.423,0,0,0,1.333,4.276c.65,1.38,1.433,2.708,2.158,4.085a19.517,19.517,0,0,1,1.7,4.354,9.787,9.787,0,0,1,.283,2.324,7.367,7.367,0,0,1-.392,2.291,8.434,8.434,0,0,0-.175-4.54,19.051,19.051,0,0,0-1.9-4.165c-.772-1.328-1.611-2.635-2.333-4.027a13.741,13.741,0,0,1-1.538-4.5,9.008,9.008,0,0,1,0-2.43c.108-.8.294-1.561.453-2.308a10.875,10.875,0,0,0,.286-2.2,7.859,7.859,0,0,0-.261-2.158,9.915,9.915,0,0,0-.789-2.041,11.849,11.849,0,0,0-1.219-1.838,13.045,13.045,0,0,0-1.555-1.577,12.8,12.8,0,0,0-1.816-1.269,16.515,16.515,0,0,0-4.154-1.661,26.265,26.265,0,0,0-4.479-.714,48.654,48.654,0,0,0-9.165.225c-3.059.328-6.121.8-9.21,1.091-1.545.139-3.1.217-4.649.231a34.476,34.476,0,0,1-4.636-.3" transform="translate(-986.341 1683.326)"/><path class="b" d="M1397.333-1389.484c-12.4,3.177-17.187,26.531-3.357,31.182,14.862,5,25.32-16.528,15.568-27.075-3.8-4.113-8.22-5.132-12.21-4.107" transform="translate(-1128.98 1504.776)"/><path class="l" d="M1425.151-1374.017c-8.559,1.375-13.832,19.555-5.012,24.559,9.478,5.379,18.372-10.813,12.8-20.138-2.174-3.638-5.032-4.862-7.784-4.421" transform="translate(-1152.732 1492.306)"/><path class="b" d="M1273.189-1609.56l-3.307-.383c2.244-19.383,1.286-44.148-16-52.056-8.186-3.746-15.657-6.432-28.969-3.813a12.673,12.673,0,0,1-3.442-.983c12.038-5.879,24.958-2.274,33.8,1.769,19.105,8.742,20.291,34.986,17.922,55.466" transform="translate(-999.043 1726.486)"/><path class="f" d="M1645.9-1792.535h113.665a11.421,11.421,0,0,0,11.385-11.385V-1864a11.421,11.421,0,0,0-11.385-11.385H1645.9A11.419,11.419,0,0,0,1634.516-1864v60.076a11.419,11.419,0,0,0,11.385,11.385" transform="translate(-1326.064 1889.183)"/><path class="f" d="M1720.742-1517.618v-38.072l29.816,16.264Z" transform="translate(-1394.332 1636.073)"/><path class="h" d="M1799.341-1686.05H1736.8a2.5,2.5,0,0,1-2.5-2.5v-2.227a2.5,2.5,0,0,1,2.5-2.5h62.539a2.5,2.5,0,0,1,2.5,2.5v2.227a2.5,2.5,0,0,1-2.5,2.5" transform="translate(-1405.068 1745.004)"/><path class="h" d="M2103.167-1686.05h-17.139a2.5,2.5,0,0,1-2.5-2.5v-2.227a2.5,2.5,0,0,1,2.5-2.5h17.139a2.5,2.5,0,0,1,2.5,2.5v2.227a2.5,2.5,0,0,1-2.5,2.5" transform="translate(-1681.561 1745.004)"/><path class="h" d="M1868.028-1772.089h62.542a2.506,2.506,0,0,1,2.5,2.5v2.23a2.506,2.506,0,0,1-2.5,2.5h-62.542a2.507,2.507,0,0,1-2.5-2.5v-2.23a2.507,2.507,0,0,1,2.5-2.5" transform="translate(-1508.964 1807.403)"/><path class="h" d="M1736.8-1772.089h17.136a2.507,2.507,0,0,1,2.5,2.5v2.23a2.507,2.507,0,0,1-2.5,2.5H1736.8a2.507,2.507,0,0,1-2.5-2.5v-2.23a2.507,2.507,0,0,1,2.5-2.5" transform="translate(-1405.068 1807.403)"/><path class="h" d="M1779.239-1614.008H1736.8a2.507,2.507,0,0,1-2.5-2.5v-2.23a2.507,2.507,0,0,1,2.5-2.5h42.437a2.507,2.507,0,0,1,2.5,2.5v2.23a2.507,2.507,0,0,1-2.5,2.5" transform="translate(-1405.068 1687.968)"/><path class="n" d="M2114.184-1407.572c-3.054-.017-6.021-.408-8.114-3.407-4.11-5.884-10.38-11.166-17.411-5.182-4.057,3.449-1.008,10.549-4.5,13.962-3.085,3.021-7.012,2.521-8.592,7.534-2.322,7.373,5,13.832,7.348,20.208,1.971,5.351-2.463,7.389-4.454,11.557-1.539,3.216-.747,6.659.927,9.73,2.952,5.418,9.494,9.78,7.978,16.8-1.264,5.854-2.441,11.074,2.727,15.512,3.541,3.041,10.111,5.815,9.611,11.444-.178,1.994-1.555,3.69-1.933,5.656-.6,3.107,1.413,6.134,3.751,8.267,5.323,4.857,10,9.433,13.982,15.542,1.7,2.61,8.523,8.5,5.8,12.071,4.954-6.484,10.189-12.774,14.69-19.594,3.7-5.609,9.283-13.812,5.484-20.719-1.183-2.149-3.379-3.749-3.982-6.126-1.086-4.293,3.133-8.272,4.7-11.924,2.463-5.734.655-12.393-3.679-16.7-2.052-2.035-4.279-4.273-4.579-7.151-.331-3.138,1.638-6.065,2.53-8.961a44.7,44.7,0,0,0,1.639-8.278,17.243,17.243,0,0,0-.167-5.876c-.877-3.643-4.157-5.668-6.584-8.25-5.779-6.154-2.74-13.385-5.265-20.535-2.266-6.417-7.189-5.554-11.9-5.582" transform="translate(-1674.903 1527.69)"/><g transform="translate(400.216 108.895)"><g class="o"><path class="p" d="M2173.868-1279.919c.591-6.778.869-13.571.869-20.363a290.192,290.192,0,0,0-5.249-53.428c-4.337-23.132-10.036-46.358-18.683-68.321a210.61,210.61,0,0,0-9.717-21.285l-1.228.647a209.571,209.571,0,0,1,9.653,21.146c8.6,21.846,14.282,44.989,18.611,68.068a288.957,288.957,0,0,1,5.223,53.173q0,10.13-.864,20.244l1.383.119" transform="translate(-2126.377 1438.209)"/><path class="p" d="M2048.475-1285.249a147.781,147.781,0,0,1,34.092,17.286c1.369.933,2.425,1.539,3.388,2.186a16.385,16.385,0,0,1,2.93,2.48l1.005-.955a17.673,17.673,0,0,0-3.163-2.677c-1.019-.683-2.055-1.277-3.377-2.18a149.176,149.176,0,0,0-34.414-17.447l-.461,1.308" transform="translate(-2054.024 1314.098)"/><path class="p" d="M2126.277-1110.268a102.109,102.109,0,0,0-38.71-14.943l-.225,1.372a100.713,100.713,0,0,1,38.183,14.737l.752-1.166" transform="translate(-2084.796 1186.355)"/><path class="p" d="M2150.1-973.88a87.36,87.36,0,0,0-38.274-19.211l-.3,1.355a85.968,85.968,0,0,1,37.661,18.905l.911-1.05" transform="translate(-2103.945 1081.752)"/><path class="p" d="M2240.087-1325.526a107.05,107.05,0,0,1,9.444-37.48l-1.263-.578a108.515,108.515,0,0,0-9.567,37.969l1.386.089" transform="translate(-2204.632 1375.083)"/><path class="p" d="M2270.013-1175.131A94.4,94.4,0,0,1,2293-1205.849l-.919-1.041a95.847,95.847,0,0,0-23.326,31.171l1.258.589" transform="translate(-2228.426 1251.024)"/><path class="p" d="M2296.1-1000.507a34.951,34.951,0,0,1,3.854-10.164,63.318,63.318,0,0,1,7.709-10.2q3.074-3.491,6.251-6.889l-1.013-.947q-3.191,3.411-6.279,6.92a64.582,64.582,0,0,0-7.873,10.427,36.2,36.2,0,0,0-4.007,10.566l1.358.283" transform="translate(-2249 1109.948)"/></g></g><path class="p" d="M2308.517-1170.9c2.222.408,4.427.536,6.359-1.35,3.793-3.7,9.075-6.662,13.349-1.349,2.463,3.066-.73,7.792,1.327,10.752,1.822,2.616,4.738,2.8,5.19,6.654.664,5.668-5.54,9.342-8.128,13.64-2.169,3.607.767,5.7,1.633,9,.669,2.546-.38,4.935-2.019,6.931-2.891,3.521-8.242,5.779-8.114,11.077.109,4.424.239,8.372-4.124,10.877-2.988,1.716-8.139,2.816-8.556,6.97-.147,1.469.619,2.893.619,4.371.005,2.338-1.874,4.254-3.865,5.476a59.021,59.021,0,0,0-12.293,9.339c-1.6,1.658-7.359,4.99-5.876,7.956-2.694-5.39-5.621-10.677-7.942-16.248-1.911-4.579-4.821-11.3-1.111-15.787,1.155-1.4,2.971-2.252,3.735-3.893,1.383-2.963-1.125-6.434-1.758-9.3a11.324,11.324,0,0,1,4.982-11.6c1.772-1.191,3.7-2.507,4.312-4.551.672-2.233-.35-4.629-.6-6.851a33.156,33.156,0,0,1-.042-6.234,12.716,12.716,0,0,1,.936-4.24c1.139-2.519,3.8-3.532,5.915-5.071,5.043-3.663,3.841-9.33,6.662-14.168,2.533-4.34,5.984-3.032,9.406-2.4" transform="translate(-1831.712 1335.844)"/><g transform="translate(441.466 159.361)"><g class="q"><path class="n" d="M2316.3-1076.691c1.838-18.061,6.681-35.708,13.313-52.6,6.331-16.137,13.651-32.126,22.9-46.769a154.485,154.485,0,0,1,9.916-13.984l-1.083-.869a156.441,156.441,0,0,0-10.008,14.112c-9.319,14.748-16.673,30.818-23.023,47-6.665,16.987-11.544,34.756-13.4,52.97l1.383.142h0" transform="translate(-2306.222 1187.911)"/><path class="n" d="M2460.707-1064.357a110.218,110.218,0,0,0-27.425,7.906c-1.075.469-1.905.753-2.749,1.114a13.179,13.179,0,0,0-2.7,1.522l.808,1.127a11.808,11.808,0,0,1,2.436-1.372c.777-.333,1.633-.627,2.76-1.119a108.838,108.838,0,0,1,27.078-7.806l-.208-1.372" transform="translate(-2395.624 1087.71)"/><path class="n" d="M2391.543-945.861a74.208,74.208,0,0,1,27.8-5.415c.622,0,1.244.006,1.863.022l.036-1.388q-.95-.021-1.9-.022a75.566,75.566,0,0,0-28.319,5.518l.522,1.286" transform="translate(-2366.477 999.279)"/><path class="n" d="M2354.208-850.254a63.289,63.289,0,0,1,29.852-8.475l-.039-1.389a64.721,64.721,0,0,0-30.508,8.661l.695,1.2" transform="translate(-2336.782 926.007)"/><path class="n" d="M2424.176-1123.027a80.068,80.068,0,0,0,.608-9.855,80.271,80.271,0,0,0-2.3-19.075l-1.347.33a78.933,78.933,0,0,1,2.255,18.744,78.374,78.374,0,0,1-.6,9.683l1.377.172" transform="translate(-2390.325 1157.065)"/><path class="n" d="M2344.5-1026.025a70.975,70.975,0,0,0-12.637-25.906l-1.1.85a69.56,69.56,0,0,1,12.391,25.4l1.346-.342" transform="translate(-2318.773 1077.871)"/><path class="n" d="M2315.451-899.917a26.992,26.992,0,0,0-1.455-8.275,47.817,47.817,0,0,0-4.282-8.686q-1.758-2.974-3.6-5.893l-1.175.741q1.833,2.9,3.577,5.857a46.52,46.52,0,0,1,4.165,8.431,25.641,25.641,0,0,1,1.381,7.85l1.388-.025" transform="translate(-2298.325 975.612)"/></g></g><path class="f" d="M2214.648-672.972h45.342l-7.953,45.378H2222.6l-7.956-45.378" transform="translate(-1785.372 937.199)"/><path class="f" d="M2187.995-721.383h56.444v-12.735h-56.444v12.735" transform="translate(-1764.27 985.611)"/><path class="r" d="M2215.7-666.954h0l-1.055-6.018,1.055,6.018" transform="translate(-1785.372 937.199)"/><path class="d" d="M2258.934-666.954H2215.7l-1.055-6.018h45.342l-1.055,6.018" transform="translate(-1785.372 937.199)"/><path class="s" d="M642.8-438.571H162.359a8.662,8.662,0,0,1-8.862-8.447,8.662,8.662,0,0,1,8.862-8.447H642.8a8.662,8.662,0,0,1,8.861,8.447,8.662,8.662,0,0,1-8.861,8.447" transform="translate(-153.497 764.993)"/><path class="t" d="M581.691-1821.542H563.743a13.917,13.917,0,0,0-13.874,13.876h0a13.881,13.881,0,0,0,6.015,11.41v9.766l9.986-7.306h15.82a13.913,13.913,0,0,0,13.874-13.871h0a13.916,13.916,0,0,0-13.874-13.876" transform="translate(-467.317 1846.557)"/><path class="h" d="M605.407-1762.928a2.106,2.106,0,0,1-2.106,2.1,2.106,2.106,0,0,1-2.105-2.1,2.107,2.107,0,0,1,2.105-2.108,2.107,2.107,0,0,1,2.106,2.108" transform="translate(-507.954 1801.819)"/><path class="h" d="M653.673-1762.928a2.106,2.106,0,0,1-2.106,2.1,2.106,2.106,0,0,1-2.105-2.1,2.107,2.107,0,0,1,2.105-2.108,2.107,2.107,0,0,1,2.106,2.108" transform="translate(-546.168 1801.819)"/><path class="h" d="M701.938-1762.928a2.106,2.106,0,0,1-2.105,2.1,2.106,2.106,0,0,1-2.106-2.1,2.107,2.107,0,0,1,2.106-2.108,2.107,2.107,0,0,1,2.105,2.108" transform="translate(-584.381 1801.819)"/><path class="t" d="M1104.287-1914.046h-34.7a3.342,3.342,0,0,1-3.332-3.332v-20.938a3.342,3.342,0,0,1,3.332-3.332h34.7a3.342,3.342,0,0,1,3.332,3.332v20.938a3.342,3.342,0,0,1-3.332,3.332" transform="translate(-876.154 1941.649)"/><path class="h" d="M1067.6-1938.5l18.111,17.561a3.287,3.287,0,0,0,2.291.911,3.287,3.287,0,0,0,2.291-.911l18.111-17.561-.773-.8-18.111,17.562a2.172,2.172,0,0,1-1.517.6,2.172,2.172,0,0,1-1.517-.6l-18.111-17.562-.773.8" transform="translate(-877.223 1939.791)"/><path class="h" d="M1068.512-1858.019l14.861-11.416-.677-.88-14.86,11.416" transform="translate(-877.406 1885.172)"/><path class="h" d="M1204.225-1858.9l-14.861-11.416-.677.88,14.86,11.416" transform="translate(-973.089 1885.172)"/><path class="t" d="M742.083-1418.153h-41.12a3.334,3.334,0,0,1-3.332-3.332v-26.525a3.332,3.332,0,0,1,3.332-3.332h41.12a3.332,3.332,0,0,1,3.332,3.332v26.525a3.334,3.334,0,0,1-3.332,3.332" transform="translate(-584.305 1553.459)"/><path class="t" d="M780.5-1284.591l8.378-11.3H772.121Z" transform="translate(-643.28 1430.382)"/><path class="h" d="M854.273-1388.363h-2.067v-5.659l.02-.927.033-1.019c-.343.344-.582.569-.716.677l-1.124.9-1-1.244,3.151-2.51h1.7v9.78" transform="translate(-704.483 1511.339)"/><path class="h" d="M753.425-1399.716h-6.782a5.257,5.257,0,0,0-5.242,5.243,5.248,5.248,0,0,0,2.273,4.312v3.688l3.773-2.76h5.978a5.256,5.256,0,0,0,5.242-5.24,5.257,5.257,0,0,0-5.242-5.243" transform="translate(-618.958 1512.584)"/></g></g></g></svg>