<svg width="325" height="320" viewBox="0 0 325 320" fill="none" xmlns="http://www.w3.org/2000/svg">
<circle cx="225" cy="164" r="100" fill="#2B31C4"/>
<ellipse cx="182.5" cy="104" rx="81.5" ry="100" fill="#DD345D"/>
<ellipse cx="117" cy="120.5" rx="100" ry="83.5" fill="#34DDDD"/>
<ellipse cx="165.5" cy="220" rx="128.5" ry="100" fill="#28DB85"/>
<circle cx="179" cy="179" r="115" fill="#D9D9D9" fill-opacity="0.42"/>
<circle cx="164" cy="164" r="115" fill="black"/>
<circle cx="110.5" cy="14.5" r="14.5" fill="#2B31C3"/>
<circle cx="17.5" cy="51.5" r="12.5" fill="#DD345D"/>
<circle cx="312.5" cy="251.5" r="12.5" fill="#34DDDD"/>
<ellipse cx="8.5" cy="181" rx="8.5" ry="8" fill="#28DB85"/>
<path d="M179.926 172.53C148.926 141.53 40.9262 91.5295 148.926 123.03L174.926 117.03C163.426 139.53 197.926 151.03 221.926 182.03C241.126 206.83 198.593 225.696 174.926 232.03C194.926 208.03 202.432 195.035 179.926 172.53Z" fill="white" stroke="black"/>
</svg>
